<svg width="13" height="15" viewBox="0 0 13 15" fill="none" xmlns="http://www.w3.org/2000/svg">
    <path
        d="M0.958313 7.10186C0.958313 6.02678 0.958313 5.48924 1.17523 5.01661C1.39294 4.54399 1.80065 4.19486 2.61685 3.49503L3.40852 2.81657C4.88498 1.55228 5.62123 0.918945 6.49998 0.918945C7.37873 0.918945 8.11577 1.55149 9.59144 2.81578L10.3831 3.49424C11.1985 4.19407 11.607 4.5432 11.8239 5.01582C12.0416 5.48845 12.0416 6.02599 12.0416 7.10107V10.4585C12.0416 11.9516 12.0416 12.6974 11.5777 13.1613C11.1138 13.6252 10.3681 13.6252 8.87498 13.6252H4.12498C2.6319 13.6252 1.88615 13.6252 1.42223 13.1613C0.958313 12.6974 0.958313 11.9516 0.958313 10.4585V7.10186Z"
        stroke="white" />
    <path
        d="M8.47915 13.625V9.66667C8.47915 9.4567 8.39574 9.25534 8.24727 9.10687C8.09881 8.95841 7.89744 8.875 7.68748 8.875H5.31248C5.10252 8.875 4.90115 8.95841 4.75269 9.10687C4.60422 9.25534 4.52081 9.4567 4.52081 9.66667V13.625"
        stroke="white" stroke-linecap="round" stroke-linejoin="round" />
</svg>