<svg width="228" height="30" viewBox="0 0 228 30" fill="none" xmlns="http://www.w3.org/2000/svg">
<path d="M27.1049 5.18261C17.3292 6.72101 15.4349 14.2445 15.3859 17.5876C16.6029 17.4397 18.696 17.1534 19.1671 17.0646C24.1408 2.41889 38.4467 10.675 46.6035 15.3825C48.3622 16.3974 49.835 17.2474 50.8669 17.6673C55.5076 19.556 56.0315 19.7133 66.9432 22.9909L66.9547 22.9943C67.592 23.1857 68.2646 23.3878 68.9756 23.6014C70.2795 22.9478 71.6486 21.3789 72.2353 19.8755C58.6774 16.8859 51.7272 13.1404 48.5461 11.4262L48.5458 11.426C48.0406 11.1538 47.6304 10.9327 47.304 10.7741C34.2987 4.45503 30.5122 4.84011 27.7563 5.12037C27.5339 5.14299 27.3182 5.16493 27.1049 5.18261Z" fill="white"/>
<path d="M37.2109 21.1435C30.1198 25.3664 23.1666 22.3531 21.123 21.0521C20.536 21.1797 19.3961 21.3777 18.3326 21.5624C17.589 21.6916 16.8828 21.8143 16.429 21.9019C21.1305 27.804 28.4823 27.5659 31.2646 27.4758C31.312 27.4743 31.358 27.4728 31.4027 27.4713C37.8856 27.2657 46.4643 21.0814 49.8085 17.3261L47.8526 16.2802L46.1576 15.2997C44.0629 17.0641 39.2068 19.9552 37.3319 21.0715L37.2109 21.1435Z" fill="white"/>
<path d="M0.0142209 16.922C1.03843 17.4324 4.98575 19.3998 19.0603 17.2378C19.9974 17.0938 21.0829 16.8698 22.294 16.6199C27.7454 15.495 35.7411 13.8451 44.2018 16.6071C43.5317 17.0421 42.9253 17.4312 42.3955 17.7713C41.388 18.4179 40.6569 18.8871 40.2901 19.1564C37.5504 18.7944 30.0958 18.5 23.3319 20.3786C23.3031 20.3852 23.2727 20.3921 23.2409 20.3994L23.1433 20.4219C20.5835 21.0111 10.0239 23.4416 1.53189 21.6407L0 16.9149L0.0142209 16.922Z" fill="white"/>
<path d="M91.5328 20.0716C90.6393 20.2085 89.9324 20.3382 89.301 20.4541C86.6157 20.9471 85.2972 21.1891 76.7989 20.6599C76.6685 21.9019 75.8862 23.7322 74.8431 24.9088C82.862 25.2356 85.7957 25.0395 89.251 24.3859L91.5328 20.0716Z" fill="white"/>
<path d="M50.656 12.2928C54.8266 8.35998 67.3457 2.61834 74.6475 11.5737C75.7306 12.9022 80.1238 20.856 72.5479 27.0006C71.7002 27.6881 65.7811 30.9226 59.0941 27.76C58.144 27.5302 56.705 26.7582 54.372 25.5067C52.3137 24.4026 49.5596 22.9252 45.8316 21.1175C47.3311 19.9408 48.1786 19.2218 48.9609 18.372C53.1806 21.1083 63.3982 26.3536 67.7787 24.3764C69.1624 23.9351 73.4311 21.5518 72.5479 16.5794C72.515 16.5022 72.4801 16.4174 72.4425 16.326C71.706 14.5357 69.9297 10.2179 61.8025 11.2834C59.5876 11.5738 57.1583 12.4166 54.5677 14.1231C53.5246 13.7963 51.5196 12.7734 50.656 12.2928Z" fill="white"/>
<path d="M108.839 28.292C106.658 28.292 104.84 27.9199 103.385 27.1757C101.931 26.4058 100.84 25.2382 100.113 23.6729C99.3855 22.1075 99.0219 20.1187 99.0219 17.7065C99.0219 15.2687 99.3855 13.2799 100.113 11.7402C100.84 10.1748 101.931 9.02007 103.385 8.27588C104.84 7.50603 106.658 7.12111 108.839 7.12111C110.813 7.12111 112.462 7.4932 113.787 8.23739C115.137 8.95592 116.15 10.0722 116.826 11.5862C117.501 13.1003 117.838 15.0634 117.838 17.4756V17.8613C117.838 18.4136 117.391 18.8613 116.838 18.8613H104.934C104.365 18.8613 103.906 19.3356 103.972 19.9002C104.068 20.7164 104.236 21.4351 104.476 22.0562C104.814 22.903 105.333 23.5446 106.034 23.9808C106.761 24.3914 107.709 24.5967 108.878 24.5967C109.476 24.5967 110.034 24.5197 110.553 24.3657C111.073 24.2118 111.527 23.9808 111.917 23.6729C112.306 23.3393 112.605 22.9287 112.813 22.4411C112.918 22.2227 112.999 21.9889 113.057 21.7396C113.181 21.2016 113.611 20.7474 114.164 20.7474H116.838C117.391 20.7474 117.846 21.1966 117.788 21.7458C117.696 22.6185 117.479 23.402 117.137 24.0963C116.696 25.0458 116.059 25.8285 115.228 26.4443C114.423 27.0602 113.475 27.5221 112.384 27.8301C111.294 28.138 110.112 28.292 108.839 28.292ZM104.16 14.4399C104.026 15.0243 104.498 15.551 105.097 15.551H111.891C112.443 15.551 112.901 15.1014 112.836 14.553C112.785 14.1239 112.7 13.738 112.579 13.3954C112.397 12.8052 112.125 12.3176 111.761 11.9327C111.423 11.5477 111.008 11.2783 110.514 11.1243C110.021 10.9447 109.463 10.8549 108.839 10.8549C107.826 10.8549 106.969 11.0217 106.268 11.3553C105.593 11.6889 105.073 12.2021 104.71 12.895C104.48 13.333 104.297 13.848 104.16 14.4399Z" fill="white"/>
<path d="M129.859 28.292C128.378 28.292 127.08 28.138 125.963 27.8301C124.846 27.4965 123.911 27.0474 123.158 26.4828C122.405 25.9183 121.833 25.2639 121.444 24.5197C121.08 23.7499 120.898 22.9159 120.898 22.0177C120.898 21.9001 120.898 21.7933 120.898 21.6973C120.898 21.68 120.903 21.6549 120.907 21.6381C120.933 21.526 121.031 21.4403 121.146 21.4403H125.458C125.543 21.4403 125.612 21.5092 125.612 21.5943C125.612 21.6456 125.612 21.6969 125.612 21.7483C125.638 22.4411 125.859 23.0057 126.275 23.4419C126.69 23.8525 127.236 24.1476 127.911 24.3272C128.586 24.5069 129.3 24.5967 130.053 24.5967C130.729 24.5967 131.365 24.5325 131.962 24.4042C132.586 24.2503 133.092 24.0193 133.482 23.7114C133.897 23.3778 134.105 22.9543 134.105 22.4411C134.105 21.7739 133.845 21.2607 133.326 20.9014C132.807 20.5422 132.118 20.247 131.261 20.0161C130.43 19.7851 129.534 19.5413 128.573 19.2847C127.716 19.0538 126.859 18.7972 126.002 18.5149C125.145 18.2326 124.366 17.8733 123.664 17.4371C122.989 17.0008 122.431 16.4363 121.989 15.7434C121.574 15.0506 121.366 14.1909 121.366 13.1644C121.366 12.1636 121.587 11.2911 122.028 10.5469C122.47 9.80275 123.08 9.18687 123.859 8.6993C124.638 8.18607 125.56 7.80114 126.625 7.54453C127.69 7.28791 128.846 7.1596 130.092 7.1596C131.313 7.1596 132.417 7.28791 133.404 7.54453C134.417 7.80114 135.287 8.17324 136.014 8.66081C136.767 9.12272 137.339 9.70011 137.728 10.393C138.144 11.0602 138.351 11.8044 138.351 12.6255C138.351 12.7983 138.339 12.9712 138.315 13.144C138.314 13.1576 138.313 13.1858 138.313 13.1995C138.313 13.3582 138.184 13.4724 138.025 13.4724H133.946C133.797 13.4724 133.677 13.3517 133.677 13.2029C133.677 12.7153 133.521 12.3048 133.209 11.9712C132.923 11.6119 132.495 11.3296 131.923 11.1243C131.378 10.919 130.69 10.8164 129.859 10.8164C129.235 10.8164 128.69 10.8677 128.222 10.9704C127.755 11.073 127.365 11.2141 127.054 11.3938C126.768 11.5734 126.547 11.7787 126.391 12.0097C126.236 12.2406 126.158 12.4972 126.158 12.7795C126.158 13.2671 126.353 13.652 126.742 13.9343C127.132 14.2166 127.651 14.4603 128.3 14.6656C128.976 14.8709 129.703 15.0891 130.482 15.32C131.417 15.5766 132.378 15.8461 133.365 16.1283C134.352 16.385 135.261 16.7186 136.092 17.1292C136.949 17.5397 137.637 18.1171 138.157 18.8613C138.676 19.6055 138.936 20.5935 138.936 21.8252C138.936 23.0057 138.702 24.0193 138.235 24.8661C137.793 25.6873 137.157 26.3545 136.326 26.8677C135.521 27.3553 134.56 27.7146 133.443 27.9455C132.352 28.1765 131.157 28.292 129.859 28.292Z" fill="white"/>
<path d="M143.949 27.8301C143.397 27.8301 142.949 27.3823 142.949 26.8301V1C142.949 0.447715 143.397 0 143.949 0H146.702C147.254 0 147.702 0.447715 147.702 1V13.4944C147.702 14.4237 148.859 14.8505 149.462 14.1438L154.766 7.93363C154.956 7.71114 155.233 7.58302 155.526 7.58302H158.435C159.294 7.58302 159.753 8.59394 159.188 9.24074L154.252 14.8938C153.97 15.2174 153.925 15.6854 154.142 16.0563L160.146 26.3254C160.535 26.992 160.055 27.8301 159.282 27.8301H156.169C155.801 27.8301 155.463 27.6281 155.288 27.3043L151.361 20.0134C151.049 19.433 150.27 19.3086 149.792 19.7626L148.013 21.4526C147.814 21.6414 147.702 21.9034 147.702 22.1775V26.8301C147.702 27.3823 147.254 27.8301 146.702 27.8301H143.949Z" fill="white"/>
<path d="M165.102 27.8301C164.55 27.8301 164.102 27.3823 164.102 26.8301V8.58302C164.102 8.03073 164.55 7.58302 165.102 7.58302H167.19C167.696 7.58302 168.122 7.96022 168.183 8.46198L168.446 10.6242C168.457 10.7119 168.532 10.7779 168.62 10.7779C168.691 10.7779 168.755 10.7346 168.783 10.6689C169.033 10.0694 169.33 9.51547 169.673 9.00724C170.062 8.44268 170.556 7.9936 171.153 7.66C171.751 7.30074 172.478 7.12111 173.335 7.12111C173.75 7.12111 174.127 7.1596 174.465 7.23659C174.529 7.25019 174.59 7.2638 174.649 7.27741C175.04 7.36827 175.283 7.72845 175.283 8.13005V10.8942C175.283 11.4465 174.835 11.8942 174.283 11.8942H173.841C173.036 11.8942 172.322 12.0097 171.699 12.2406C171.075 12.4459 170.543 12.7795 170.101 13.2414C169.686 13.7033 169.374 14.2807 169.166 14.9736C168.959 15.6664 168.855 16.4748 168.855 17.3986V26.8301C168.855 27.3823 168.407 27.8301 167.855 27.8301H165.102Z" fill="white"/>
<path d="M186.952 28.292C184.718 28.292 182.849 27.9199 181.342 27.1757C179.836 26.4058 178.706 25.2382 177.953 23.6729C177.2 22.1075 176.823 20.1187 176.823 17.7065C176.823 15.2687 177.2 13.2799 177.953 11.7402C178.706 10.1748 179.836 9.02007 181.342 8.27588C182.849 7.50603 184.718 7.12111 186.952 7.12111C189.212 7.12111 191.082 7.50603 192.562 8.27588C194.068 9.02007 195.198 10.1748 195.951 11.7402C196.704 13.2799 197.081 15.2687 197.081 17.7065C197.081 20.1187 196.704 22.1075 195.951 23.6729C195.198 25.2382 194.068 26.4058 192.562 27.1757C191.082 27.9199 189.212 28.292 186.952 28.292ZM186.952 24.4427C188.199 24.4427 189.199 24.2118 189.952 23.7499C190.731 23.2623 191.289 22.5438 191.627 21.5943C191.991 20.6191 192.172 19.413 192.172 17.976V17.4371C192.172 16 191.991 14.8068 191.627 13.8573C191.289 12.8821 190.731 12.1636 189.952 11.7017C189.199 11.2141 188.199 10.9704 186.952 10.9704C185.705 10.9704 184.693 11.2141 183.913 11.7017C183.16 12.1636 182.602 12.8821 182.238 13.8573C181.901 14.8068 181.732 16 181.732 17.4371V17.976C181.732 19.413 181.901 20.6191 182.238 21.5943C182.602 22.5438 183.16 23.2623 183.913 23.7499C184.693 24.2118 185.705 24.4427 186.952 24.4427Z" fill="white"/>
<path d="M205.563 27.8301C205.122 27.8301 204.733 27.5413 204.605 27.1192L199.093 8.8722C198.899 8.23019 199.38 7.58302 200.051 7.58302H202.838C203.294 7.58302 203.692 7.89144 203.806 8.3329L206.456 18.5919C206.612 19.1564 206.742 19.721 206.846 20.2855C206.95 20.8244 207.041 21.2863 207.119 21.6713C207.174 21.9441 207.216 22.1395 207.245 22.2577C207.261 22.3218 207.319 22.3641 207.385 22.3641C207.457 22.3641 207.52 22.3142 207.535 22.2439C207.63 21.8157 207.725 21.3554 207.82 20.8629C207.924 20.324 208.015 19.8365 208.093 19.4002C208.197 18.9383 208.261 18.6304 208.287 18.4764L210.751 8.34672C210.86 7.89852 211.261 7.58302 211.723 7.58302H215.262C215.719 7.58302 216.119 7.89391 216.231 8.33773L218.806 18.5149C218.91 18.8741 219.001 19.2976 219.079 19.7851C219.183 20.247 219.286 20.709 219.39 21.1709C219.482 21.5803 219.554 21.9394 219.605 22.2481C219.617 22.3148 219.674 22.3641 219.742 22.3641C219.809 22.3641 219.866 22.3158 219.877 22.2497C219.926 21.9653 219.984 21.6314 220.053 21.2478C220.157 20.8116 220.26 20.3625 220.364 19.9006C220.468 19.4387 220.559 19.0153 220.637 18.6304L223.251 8.33693C223.363 7.8935 223.762 7.58302 224.22 7.58302H226.656C227.326 7.58302 227.806 8.22887 227.614 8.87051L222.136 27.1176C222.01 27.5405 221.62 27.8301 221.179 27.8301H217.684C217.222 27.8301 216.821 27.514 216.712 27.0652L214.56 18.1684C214.456 17.6809 214.326 17.1292 214.17 16.5133C214.04 15.8974 213.91 15.2815 213.78 14.6656C213.685 14.0983 213.6 13.6072 213.526 13.1922C213.516 13.1316 213.463 13.0874 213.401 13.0874C213.331 13.0874 213.274 13.1443 213.269 13.2145C213.257 13.4033 213.219 13.6817 213.157 14.0498C213.079 14.5117 212.962 15.0891 212.807 15.7819C212.677 16.4748 212.495 17.2703 212.261 18.1684L210.035 27.0726C209.924 27.5178 209.524 27.8301 209.065 27.8301H205.563Z" fill="white"/>
</svg>
