<svg width="224" height="44" viewBox="0 0 224 44" fill="none" xmlns="http://www.w3.org/2000/svg">
<path d="M27.1544 5.09047C17.3609 6.63006 15.4631 14.1594 15.414 17.505C16.6332 17.357 18.7302 17.0705 19.2021 16.9817C24.1848 2.32462 38.5169 10.5871 46.6887 15.2982C48.4505 16.3139 49.926 17.1646 50.9597 17.5848C55.609 19.4749 56.1338 19.6324 67.0655 22.9125L67.0769 22.9159C67.7154 23.1075 68.3893 23.3097 69.1016 23.5235C70.4078 22.8693 71.7794 21.2993 72.3672 19.7947C58.7846 16.8028 51.8217 13.0544 48.6348 11.3388C48.1287 11.0664 47.7174 10.845 47.3904 10.6863C34.3614 4.36233 30.5679 4.74771 27.807 5.02819C27.5842 5.05082 27.3681 5.07278 27.1544 5.09047Z" fill="#0069FF"/>
<path d="M37.2788 21.0637C30.1748 25.2898 23.2089 22.2742 21.1615 20.9722C20.5735 21.0999 19.4315 21.2981 18.366 21.4829C17.6211 21.6122 16.9136 21.735 16.459 21.8226C21.1691 27.7293 28.5343 27.491 31.3217 27.4008C31.3692 27.3993 31.4153 27.3978 31.46 27.3964C37.9548 27.1906 46.5492 21.0015 49.8994 17.2434L47.94 16.1967L46.2419 15.2154C44.1434 16.9811 39.2784 19.8745 37.4 20.9916L37.2788 21.0637Z" fill="#0069FF"/>
<path d="M0.0142469 16.8389C1.04033 17.3498 4.99486 19.3186 19.0951 17.1549C20.0339 17.0109 21.1214 16.7867 22.3347 16.5366C27.796 15.4108 35.8064 13.7596 44.2825 16.5238C43.6112 16.9591 43.0037 17.3485 42.4729 17.6889C41.4635 18.336 40.7312 18.8056 40.3637 19.0751C37.6189 18.7128 30.1508 18.4181 23.3745 20.2981C23.3456 20.3048 23.3152 20.3117 23.2833 20.3191L23.1855 20.3415C20.6211 20.9312 10.0422 23.3636 1.53469 21.5613L0 16.8318L0.0142469 16.8389Z" fill="#0069FF"/>
<path d="M91.7 19.9909C90.8048 20.1279 90.0966 20.2578 89.4641 20.3738C86.7739 20.8671 85.4529 21.1093 76.9392 20.5797C76.8086 21.8226 76.0248 23.6544 74.9798 24.8319C83.0133 25.159 85.9524 24.9627 89.414 24.3085L91.7 19.9909Z" fill="#0069FF"/>
<path d="M50.7485 12.2061C54.9267 8.2703 67.4687 2.52422 74.7838 11.4865C75.8689 12.816 80.2702 20.7759 72.6804 26.9253C71.8311 27.6134 65.9012 30.8504 59.202 27.6853C58.2502 27.4553 56.8086 26.6827 54.4713 25.4302C52.4093 24.3253 49.6502 22.8467 45.9153 21.0376C47.4175 19.8601 48.2666 19.1405 49.0504 18.29C53.2777 21.0284 63.5139 26.2778 67.9025 24.2991C69.2887 23.8574 73.5652 21.4723 72.6804 16.4961C72.6475 16.4188 72.6125 16.334 72.5748 16.2425C71.8369 14.4507 70.0574 10.1297 61.9154 11.196C59.6964 11.4865 57.2627 12.33 54.6673 14.0379C53.6223 13.7108 51.6136 12.6871 50.7485 12.2061Z" fill="#0069FF"/>
<path d="M105.004 28.35C102.825 28.35 101.01 27.9771 99.5572 27.2314C98.1048 26.46 97.0155 25.29 96.2893 23.7214C95.5631 22.1529 95.2 20.16 95.2 17.7429C95.2 15.3 95.5631 13.3071 96.2893 11.7643C97.0155 10.1957 98.1048 9.03857 99.5572 8.29286C101.01 7.52143 102.825 7.13571 105.004 7.13571C106.975 7.13571 108.622 7.50857 109.945 8.25429C111.293 8.97429 112.305 10.0929 112.979 11.61C113.653 13.1271 113.991 15.0943 113.991 17.5114V17.9C113.991 18.4523 113.543 18.9 112.991 18.9H101.105C100.537 18.9 100.077 19.3742 100.143 19.9388C100.238 20.7576 100.406 21.4785 100.647 22.1014C100.984 22.95 101.502 23.5929 102.203 24.03C102.929 24.4414 103.876 24.6471 105.043 24.6471C105.639 24.6471 106.197 24.57 106.716 24.4157C107.234 24.2614 107.688 24.03 108.077 23.7214C108.466 23.3871 108.764 22.9757 108.972 22.4871C109.077 22.2677 109.158 22.0328 109.216 21.7822C109.34 21.2441 109.77 20.79 110.322 20.79H112.991C113.543 20.79 113.998 21.2391 113.94 21.7884C113.849 22.6637 113.632 23.4495 113.29 24.1457C112.849 25.0971 112.214 25.8814 111.384 26.4986C110.58 27.1157 109.633 27.5786 108.544 27.8871C107.455 28.1957 106.275 28.35 105.004 28.35ZM100.331 14.4721C100.197 15.0565 100.668 15.5829 101.268 15.5829H108.05C108.602 15.5829 109.06 15.1334 108.995 14.5848C108.945 14.154 108.859 13.7667 108.739 13.4229C108.557 12.8314 108.285 12.3429 107.922 11.9571C107.584 11.5714 107.169 11.3014 106.677 11.1471C106.184 10.9671 105.626 10.8771 105.004 10.8771C103.992 10.8771 103.136 11.0443 102.436 11.3786C101.762 11.7129 101.243 12.2271 100.88 12.9214C100.65 13.361 100.467 13.8779 100.331 14.4721Z" fill="#0069FF"/>
<path d="M125.994 28.35C124.516 28.35 123.219 28.1957 122.104 27.8871C120.989 27.5529 120.055 27.1029 119.303 26.5371C118.551 25.9714 117.98 25.3157 117.591 24.57C117.228 23.7986 117.046 22.9629 117.046 22.0629C117.046 21.945 117.046 21.8379 117.046 21.7417C117.046 21.7244 117.05 21.6994 117.054 21.6826C117.081 21.5702 117.179 21.4843 117.294 21.4843H121.599C121.685 21.4843 121.754 21.5534 121.754 21.6386C121.754 21.69 121.754 21.7414 121.754 21.7929C121.78 22.4871 122 23.0529 122.415 23.49C122.83 23.9014 123.375 24.1971 124.049 24.3771C124.723 24.5571 125.437 24.6471 126.189 24.6471C126.863 24.6471 127.498 24.5829 128.095 24.4543C128.717 24.3 129.223 24.0686 129.612 23.76C130.027 23.4257 130.235 23.0014 130.235 22.4871C130.235 21.8186 129.975 21.3043 129.457 20.9443C128.938 20.5843 128.251 20.2886 127.395 20.0571C126.565 19.8257 125.67 19.5814 124.71 19.3243C123.854 19.0929 122.999 18.8357 122.143 18.5529C121.287 18.27 120.509 17.91 119.808 17.4729C119.134 17.0357 118.577 16.47 118.136 15.7757C117.721 15.0814 117.513 14.22 117.513 13.1914C117.513 12.1886 117.734 11.3143 118.175 10.5686C118.615 9.82286 119.225 9.20572 120.003 8.71714C120.781 8.20286 121.702 7.81714 122.765 7.56C123.829 7.30286 124.983 7.17429 126.228 7.17429C127.447 7.17429 128.549 7.30286 129.534 7.56C130.546 7.81714 131.415 8.19 132.141 8.67857C132.893 9.14143 133.464 9.72 133.853 10.4143C134.268 11.0829 134.475 11.8286 134.475 12.6514C134.475 12.8246 134.463 12.9978 134.439 13.171C134.437 13.1846 134.436 13.2128 134.436 13.2265C134.436 13.3855 134.307 13.5 134.148 13.5H130.077C129.928 13.5 129.807 13.3791 129.807 13.23C129.807 12.7414 129.651 12.33 129.34 11.9957C129.055 11.6357 128.627 11.3529 128.056 11.1471C127.511 10.9414 126.824 10.8386 125.994 10.8386C125.372 10.8386 124.827 10.89 124.36 10.9929C123.893 11.0957 123.504 11.2371 123.193 11.4171C122.908 11.5971 122.687 11.8029 122.532 12.0343C122.376 12.2657 122.298 12.5229 122.298 12.8057C122.298 13.2943 122.493 13.68 122.882 13.9629C123.271 14.2457 123.79 14.49 124.438 14.6957C125.112 14.9014 125.839 15.12 126.617 15.3514C127.55 15.6086 128.51 15.8786 129.496 16.1614C130.481 16.4186 131.389 16.7529 132.219 17.1643C133.075 17.5757 133.762 18.1543 134.281 18.9C134.799 19.6457 135.059 20.6357 135.059 21.87C135.059 23.0529 134.825 24.0686 134.359 24.9171C133.918 25.74 133.282 26.4086 132.452 26.9229C131.648 27.4114 130.689 27.7714 129.573 28.0029C128.484 28.2343 127.291 28.35 125.994 28.35Z" fill="#0069FF"/>
<path d="M140.067 27.8871C139.514 27.8871 139.067 27.4394 139.067 26.8871V1C139.067 0.447715 139.514 0 140.067 0H142.813C143.365 0 143.813 0.447715 143.813 1V13.5205C143.813 14.4507 144.971 14.877 145.574 14.1686L150.866 7.95047C151.056 7.72721 151.335 7.59857 151.628 7.59857H154.533C155.391 7.59857 155.851 8.60786 155.287 9.25502L150.352 14.9265C150.071 15.2497 150.027 15.7162 150.243 16.0864L156.242 26.3837C156.63 27.0504 156.149 27.8871 155.378 27.8871H152.27C151.901 27.8871 151.563 27.6846 151.388 27.3601L147.468 20.0567C147.156 19.4748 146.375 19.3501 145.897 19.8059L144.123 21.4973C143.925 21.6861 143.813 21.9476 143.813 22.2211V26.8871C143.813 27.4394 143.365 27.8871 142.813 27.8871H140.067Z" fill="#0069FF"/>
<path d="M161.19 27.8871C160.638 27.8871 160.19 27.4394 160.19 26.8871V8.59857C160.19 8.04629 160.638 7.59857 161.19 7.59857H163.272C163.778 7.59857 164.204 7.976 164.265 8.47794L164.529 10.6466C164.539 10.7341 164.614 10.8 164.702 10.8C164.773 10.8 164.837 10.7567 164.864 10.691C165.114 10.0902 165.411 9.53506 165.753 9.02571C166.142 8.46 166.635 8.01 167.232 7.67571C167.828 7.31571 168.554 7.13571 169.41 7.13571C169.825 7.13571 170.201 7.17429 170.539 7.25143C170.603 7.26508 170.664 7.27873 170.723 7.29238C171.113 7.38343 171.355 7.74333 171.355 8.14448V10.9186C171.355 11.4709 170.908 11.9186 170.355 11.9186H169.916C169.112 11.9186 168.399 12.0343 167.776 12.2657C167.154 12.4714 166.622 12.8057 166.181 13.2686C165.766 13.7314 165.455 14.31 165.248 15.0043C165.04 15.6986 164.936 16.5086 164.936 17.4343V26.8871C164.936 27.4394 164.489 27.8871 163.936 27.8871H161.19Z" fill="#0069FF"/>
<path d="M183.009 28.35C180.778 28.35 178.911 27.9771 177.407 27.2314C175.902 26.46 174.774 25.29 174.022 23.7214C173.27 22.1529 172.894 20.16 172.894 17.7429C172.894 15.3 173.27 13.3071 174.022 11.7643C174.774 10.1957 175.902 9.03857 177.407 8.29286C178.911 7.52143 180.778 7.13571 183.009 7.13571C185.265 7.13571 187.133 7.52143 188.611 8.29286C190.115 9.03857 191.243 10.1957 191.995 11.7643C192.748 13.3071 193.124 15.3 193.124 17.7429C193.124 20.16 192.748 22.1529 191.995 23.7214C191.243 25.29 190.115 26.46 188.611 27.2314C187.133 27.9771 185.265 28.35 183.009 28.35ZM183.009 24.4929C184.254 24.4929 185.252 24.2614 186.004 23.7986C186.782 23.31 187.34 22.59 187.677 21.6386C188.04 20.6614 188.222 19.4529 188.222 18.0129V17.4729C188.222 16.0329 188.04 14.8371 187.677 13.8857C187.34 12.9086 186.782 12.1886 186.004 11.7257C185.252 11.2371 184.254 10.9929 183.009 10.9929C181.764 10.9929 180.752 11.2371 179.974 11.7257C179.222 12.1886 178.664 12.9086 178.301 13.8857C177.964 14.8371 177.796 16.0329 177.796 17.4729V18.0129C177.796 19.4529 177.964 20.6614 178.301 21.6386C178.664 22.59 179.222 23.31 179.974 23.7986C180.752 24.2614 181.764 24.4929 183.009 24.4929Z" fill="#0069FF"/>
<path d="M201.595 27.8871C201.154 27.8871 200.765 27.5979 200.638 27.1754L195.132 8.88684C194.939 8.24503 195.419 7.59857 196.09 7.59857H198.871C199.327 7.59857 199.726 7.9074 199.839 8.34926L202.486 18.63C202.642 19.1957 202.771 19.7614 202.875 20.3271C202.979 20.8671 203.07 21.33 203.148 21.7157C203.203 21.9893 203.245 22.1853 203.274 22.3036C203.29 22.3677 203.348 22.41 203.414 22.41C203.485 22.41 203.548 22.3602 203.563 22.29C203.658 21.8608 203.753 21.3994 203.848 20.9057C203.952 20.3657 204.042 19.8771 204.12 19.44C204.224 18.9771 204.289 18.6686 204.315 18.5143L206.775 8.36304C206.884 7.91446 207.285 7.59857 207.747 7.59857H211.277C211.735 7.59857 212.135 7.90986 212.247 8.35407L214.819 18.5529C214.922 18.9129 215.013 19.3371 215.091 19.8257C215.195 20.2886 215.299 20.7514 215.402 21.2143C215.494 21.6248 215.566 21.9847 215.617 22.2941C215.628 22.3608 215.686 22.41 215.753 22.41C215.82 22.41 215.877 22.3617 215.888 22.2957C215.937 22.0107 215.995 21.6759 216.064 21.2914C216.167 20.8543 216.271 20.4043 216.375 19.9414C216.479 19.4786 216.569 19.0543 216.647 18.6686L219.257 8.35327C219.37 7.90945 219.769 7.59857 220.227 7.59857H222.657C223.327 7.59857 223.807 8.24371 223.615 8.88516L218.144 27.1737C218.018 27.5971 217.628 27.8871 217.186 27.8871H213.7C213.238 27.8871 212.836 27.5707 212.728 27.1215L210.578 18.2057C210.474 17.7171 210.345 17.1643 210.189 16.5471C210.059 15.93 209.93 15.3129 209.8 14.6957C209.704 14.1271 209.62 13.6348 209.546 13.219C209.536 13.1584 209.483 13.1143 209.421 13.1143C209.351 13.1143 209.294 13.1711 209.29 13.2411C209.277 13.4303 209.24 13.7095 209.178 14.0786C209.1 14.5414 208.983 15.12 208.827 15.8143C208.698 16.5086 208.516 17.3057 208.283 18.2057L206.06 27.1289C205.949 27.5744 205.549 27.8871 205.089 27.8871H201.595Z" fill="#0069FF"/>
<path d="M162 35.1094H163.465L166.012 41.3281H166.105L168.652 35.1094H170.117V43.1094H168.969V37.3203H168.895L166.535 43.0977H165.582L163.223 37.3164H163.148V43.1094H162V35.1094Z" fill="#343E65"/>
<path d="M171.872 43.1094V35.1094H176.888V36.1484H173.079V38.5859H176.626V39.6211H173.079V42.0703H176.935V43.1094H171.872Z" fill="#343E65"/>
<path d="M178.5 43.1094V35.1094H181.352C181.971 35.1094 182.486 35.2161 182.895 35.4297C183.306 35.6432 183.613 35.9388 183.816 36.3164C184.02 36.6914 184.121 37.125 184.121 37.6172C184.121 38.1068 184.018 38.5378 183.812 38.9102C183.609 39.2799 183.302 39.5677 182.891 39.7734C182.482 39.9792 181.967 40.082 181.348 40.082H179.188V39.043H181.238C181.629 39.043 181.947 38.987 182.191 38.875C182.439 38.763 182.62 38.6003 182.734 38.3867C182.849 38.1732 182.906 37.9167 182.906 37.6172C182.906 37.3151 182.848 37.0534 182.73 36.832C182.616 36.6107 182.435 36.4414 182.188 36.3242C181.943 36.2044 181.621 36.1445 181.223 36.1445H179.707V43.1094H178.5ZM182.449 39.5L184.426 43.1094H183.051L181.113 39.5H182.449Z" fill="#343E65"/>
<path d="M192.234 37.7109H191.016C190.969 37.4505 190.882 37.2214 190.754 37.0234C190.626 36.8255 190.47 36.6576 190.285 36.5195C190.1 36.3815 189.893 36.2773 189.664 36.207C189.438 36.1367 189.197 36.1016 188.941 36.1016C188.48 36.1016 188.068 36.2174 187.703 36.4492C187.341 36.681 187.055 37.0208 186.844 37.4688C186.635 37.9167 186.531 38.4635 186.531 39.1094C186.531 39.7604 186.635 40.3099 186.844 40.7578C187.055 41.2057 187.342 41.5443 187.707 41.7734C188.072 42.0026 188.482 42.1172 188.938 42.1172C189.19 42.1172 189.43 42.0833 189.656 42.0156C189.885 41.9453 190.092 41.8424 190.277 41.707C190.462 41.5716 190.618 41.4062 190.746 41.2109C190.876 41.013 190.966 40.7865 191.016 40.5313L192.234 40.5352C192.169 40.9284 192.043 41.2904 191.855 41.6211C191.671 41.9492 191.432 42.2331 191.141 42.4727C190.852 42.7096 190.521 42.8932 190.148 43.0234C189.776 43.1536 189.37 43.2188 188.93 43.2188C188.237 43.2188 187.62 43.0547 187.078 42.7266C186.536 42.3958 186.109 41.9232 185.797 41.3086C185.487 40.694 185.332 39.9609 185.332 39.1094C185.332 38.2552 185.488 37.5221 185.801 36.9102C186.113 36.2956 186.54 35.8242 187.082 35.4961C187.624 35.1654 188.24 35 188.93 35C189.354 35 189.75 35.0612 190.117 35.1836C190.487 35.3034 190.819 35.4805 191.113 35.7148C191.408 35.9466 191.651 36.2305 191.844 36.5664C192.036 36.8997 192.167 37.2812 192.234 37.7109Z" fill="#343E65"/>
<path d="M193.679 43.1094V35.1094H194.886V38.5859H198.874V35.1094H200.085V43.1094H198.874V39.6211H194.886V43.1094H193.679Z" fill="#343E65"/>
<path d="M202.519 43.1094H201.237L204.116 35.1094H205.511L208.39 43.1094H207.108L204.847 36.5625H204.784L202.519 43.1094ZM202.733 39.9766H206.89V40.9922H202.733V39.9766Z" fill="#343E65"/>
<path d="M216.002 35.1094V43.1094H214.893L210.826 37.2422H210.752V43.1094H209.545V35.1094H210.662L214.732 40.9844H214.807V35.1094H216.002Z" fill="#343E65"/>
<path d="M217.368 36.1484V35.1094H223.56V36.1484H221.063V43.1094H219.86V36.1484H217.368Z" fill="#343E65"/>
</svg>
