<svg width="224" height="44" viewBox="0 0 224 44" fill="none" xmlns="http://www.w3.org/2000/svg">
<path d="M27.1544 5.09047C17.3609 6.63006 15.4631 14.1594 15.414 17.505C16.6332 17.357 18.7302 17.0705 19.2021 16.9817C24.1848 2.32462 38.5169 10.5871 46.6887 15.2982C48.4505 16.3139 49.926 17.1646 50.9597 17.5848C55.609 19.4749 56.1338 19.6324 67.0655 22.9125L67.0769 22.9159C67.7154 23.1075 68.3893 23.3097 69.1016 23.5235C70.4078 22.8693 71.7794 21.2993 72.3672 19.7947C58.7845 16.8028 51.8217 13.0544 48.6348 11.3388C48.1287 11.0664 47.7174 10.845 47.3904 10.6863C34.3614 4.36233 30.5679 4.74771 27.807 5.02819C27.5842 5.05082 27.3681 5.07278 27.1544 5.09047Z" fill="#0069FF"/>
<path d="M37.2788 21.0637C30.1748 25.2898 23.2089 22.2742 21.1615 20.9722C20.5735 21.0999 19.4315 21.2981 18.366 21.4829C17.6211 21.6122 16.9136 21.735 16.459 21.8226C21.1691 27.7293 28.5343 27.491 31.3217 27.4008C31.3692 27.3993 31.4153 27.3978 31.46 27.3964C37.9548 27.1906 46.5492 21.0015 49.8994 17.2434L47.94 16.1967L46.2419 15.2154C44.1434 16.9811 39.2785 19.8745 37.4 20.9916L37.2788 21.0637Z" fill="#0069FF"/>
<path d="M0.0142469 16.8389C1.04033 17.3498 4.99486 19.3186 19.0951 17.1549C20.0339 17.0109 21.1214 16.7867 22.3347 16.5366C27.796 15.4108 35.8064 13.7596 44.2825 16.5238C43.6112 16.9591 43.0037 17.3485 42.4729 17.6889C41.4635 18.336 40.7312 18.8056 40.3637 19.0751C37.6189 18.7128 30.1508 18.4181 23.3745 20.2981C23.3456 20.3048 23.3152 20.3117 23.2833 20.3191L23.1855 20.3415C20.6211 20.9312 10.0422 23.3636 1.53469 21.5613L0 16.8318L0.0142469 16.8389Z" fill="#0069FF"/>
<path d="M91.7 19.9909C90.8048 20.1279 90.0966 20.2578 89.4641 20.3738C86.7739 20.8671 85.4529 21.1093 76.9392 20.5797C76.8085 21.8226 76.0248 23.6544 74.9798 24.8319C83.0133 25.159 85.9524 24.9627 89.414 24.3085L91.7 19.9909Z" fill="#0069FF"/>
<path d="M50.7485 12.2061C54.9267 8.2703 67.4687 2.52422 74.7838 11.4865C75.8689 12.816 80.2702 20.7759 72.6804 26.9253C71.8311 27.6134 65.9012 30.8504 59.202 27.6853C58.2502 27.4553 56.8086 26.6827 54.4713 25.4302C52.4093 24.3253 49.6502 22.8467 45.9153 21.0376C47.4175 19.8601 48.2666 19.1405 49.0504 18.29C53.2777 21.0285 63.5139 26.2778 67.9025 24.2991C69.2887 23.8574 73.5652 21.4723 72.6804 16.4961C72.6475 16.4188 72.6125 16.334 72.5748 16.2425C71.8369 14.4507 70.0574 10.1297 61.9154 11.196C59.6964 11.4865 57.2627 12.33 54.6673 14.0379C53.6223 13.7108 51.6136 12.6871 50.7485 12.2061Z" fill="#0069FF"/>
<path d="M105.004 28.35C102.825 28.35 101.01 27.9771 99.5572 27.2314C98.1048 26.46 97.0155 25.29 96.2893 23.7214C95.5631 22.1529 95.2 20.16 95.2 17.7429C95.2 15.3 95.5631 13.3071 96.2893 11.7643C97.0155 10.1957 98.1048 9.03857 99.5572 8.29286C101.01 7.52143 102.825 7.13571 105.004 7.13571C106.975 7.13571 108.622 7.50857 109.945 8.25429C111.293 8.97429 112.305 10.0929 112.979 11.61C113.653 13.1271 113.991 15.0943 113.991 17.5114V17.9C113.991 18.4523 113.543 18.9 112.991 18.9H101.105C100.537 18.9 100.077 19.3742 100.143 19.9388C100.238 20.7576 100.406 21.4785 100.647 22.1014C100.984 22.95 101.502 23.5929 102.203 24.03C102.929 24.4414 103.876 24.6471 105.043 24.6471C105.639 24.6471 106.197 24.57 106.716 24.4157C107.234 24.2614 107.688 24.03 108.077 23.7214C108.466 23.3871 108.764 22.9757 108.972 22.4871C109.077 22.2677 109.158 22.0328 109.216 21.7822C109.34 21.2441 109.77 20.79 110.322 20.79H112.991C113.543 20.79 113.998 21.2391 113.94 21.7884C113.849 22.6637 113.632 23.4495 113.29 24.1457C112.849 25.0971 112.214 25.8814 111.384 26.4986C110.58 27.1157 109.633 27.5786 108.544 27.8871C107.455 28.1957 106.275 28.35 105.004 28.35ZM100.331 14.4721C100.197 15.0565 100.668 15.5829 101.268 15.5829H108.05C108.602 15.5829 109.06 15.1334 108.995 14.5848C108.945 14.154 108.859 13.7667 108.739 13.4229C108.557 12.8314 108.285 12.3429 107.922 11.9571C107.584 11.5714 107.169 11.3014 106.677 11.1471C106.184 10.9671 105.626 10.8771 105.004 10.8771C103.992 10.8771 103.136 11.0443 102.436 11.3786C101.762 11.7129 101.243 12.2271 100.88 12.9214C100.65 13.361 100.467 13.8779 100.331 14.4721Z" fill="#0069FF"/>
<path d="M125.994 28.35C124.516 28.35 123.219 28.1957 122.104 27.8871C120.989 27.5529 120.055 27.1029 119.303 26.5371C118.551 25.9714 117.98 25.3157 117.591 24.57C117.228 23.7986 117.046 22.9629 117.046 22.0629C117.046 21.945 117.046 21.8379 117.046 21.7417C117.046 21.7244 117.05 21.6994 117.054 21.6826C117.081 21.5702 117.179 21.4843 117.294 21.4843H121.599C121.685 21.4843 121.754 21.5534 121.754 21.6386C121.754 21.69 121.754 21.7414 121.754 21.7929C121.78 22.4871 122 23.0529 122.415 23.49C122.83 23.9014 123.375 24.1971 124.049 24.3771C124.723 24.5571 125.437 24.6471 126.189 24.6471C126.863 24.6471 127.498 24.5829 128.095 24.4543C128.717 24.3 129.223 24.0686 129.612 23.76C130.027 23.4257 130.235 23.0014 130.235 22.4871C130.235 21.8186 129.975 21.3043 129.457 20.9443C128.938 20.5843 128.251 20.2886 127.395 20.0571C126.565 19.8257 125.67 19.5814 124.71 19.3243C123.854 19.0929 122.999 18.8357 122.143 18.5529C121.287 18.27 120.509 17.91 119.808 17.4729C119.134 17.0357 118.577 16.47 118.136 15.7757C117.721 15.0814 117.513 14.22 117.513 13.1914C117.513 12.1886 117.734 11.3143 118.175 10.5686C118.615 9.82286 119.225 9.20572 120.003 8.71714C120.781 8.20286 121.702 7.81714 122.765 7.56C123.829 7.30286 124.983 7.17429 126.228 7.17429C127.447 7.17429 128.549 7.30286 129.534 7.56C130.546 7.81714 131.415 8.19 132.141 8.67857C132.893 9.14143 133.464 9.72 133.853 10.4143C134.268 11.0829 134.475 11.8286 134.475 12.6514C134.475 12.8246 134.463 12.9978 134.439 13.171C134.437 13.1846 134.436 13.2128 134.436 13.2265C134.436 13.3855 134.307 13.5 134.148 13.5H130.077C129.928 13.5 129.807 13.3791 129.807 13.23C129.807 12.7414 129.651 12.33 129.34 11.9957C129.055 11.6357 128.627 11.3529 128.056 11.1471C127.511 10.9414 126.824 10.8386 125.994 10.8386C125.372 10.8386 124.827 10.89 124.36 10.9929C123.893 11.0957 123.504 11.2371 123.193 11.4171C122.908 11.5971 122.687 11.8029 122.532 12.0343C122.376 12.2657 122.298 12.5229 122.298 12.8057C122.298 13.2943 122.493 13.68 122.882 13.9629C123.271 14.2457 123.79 14.49 124.438 14.6957C125.112 14.9014 125.839 15.12 126.617 15.3514C127.55 15.6086 128.51 15.8786 129.496 16.1614C130.481 16.4186 131.389 16.7529 132.219 17.1643C133.075 17.5757 133.762 18.1543 134.281 18.9C134.799 19.6457 135.059 20.6357 135.059 21.87C135.059 23.0529 134.825 24.0686 134.359 24.9171C133.918 25.74 133.282 26.4086 132.452 26.9229C131.648 27.4114 130.689 27.7714 129.573 28.0029C128.484 28.2343 127.291 28.35 125.994 28.35Z" fill="#0069FF"/>
<path d="M140.067 27.8871C139.514 27.8871 139.067 27.4394 139.067 26.8871V1C139.067 0.447715 139.514 0 140.067 0H142.813C143.365 0 143.813 0.447715 143.813 1V13.5205C143.813 14.4507 144.971 14.877 145.574 14.1686L150.866 7.95047C151.056 7.72721 151.335 7.59857 151.628 7.59857H154.533C155.391 7.59857 155.851 8.60786 155.287 9.25502L150.352 14.9265C150.071 15.2497 150.027 15.7162 150.243 16.0864L156.242 26.3837C156.63 27.0504 156.149 27.8871 155.378 27.8871H152.27C151.901 27.8871 151.563 27.6846 151.388 27.3601L147.468 20.0567C147.156 19.4748 146.375 19.3501 145.897 19.8059L144.123 21.4973C143.925 21.6861 143.813 21.9476 143.813 22.2211V26.8871C143.813 27.4394 143.365 27.8871 142.813 27.8871H140.067Z" fill="#0069FF"/>
<path d="M161.19 27.8871C160.638 27.8871 160.19 27.4394 160.19 26.8871V8.59857C160.19 8.04629 160.638 7.59857 161.19 7.59857H163.272C163.778 7.59857 164.204 7.976 164.265 8.47794L164.529 10.6466C164.539 10.7341 164.614 10.8 164.702 10.8C164.773 10.8 164.837 10.7567 164.864 10.691C165.114 10.0902 165.411 9.53506 165.753 9.02571C166.142 8.46 166.635 8.01 167.232 7.67571C167.828 7.31571 168.554 7.13571 169.41 7.13571C169.825 7.13571 170.201 7.17429 170.539 7.25143C170.603 7.26508 170.664 7.27873 170.723 7.29238C171.113 7.38343 171.355 7.74333 171.355 8.14448V10.9186C171.355 11.4709 170.908 11.9186 170.355 11.9186H169.916C169.112 11.9186 168.399 12.0343 167.776 12.2657C167.154 12.4714 166.622 12.8057 166.181 13.2686C165.766 13.7314 165.455 14.31 165.248 15.0043C165.04 15.6986 164.936 16.5086 164.936 17.4343V26.8871C164.936 27.4394 164.489 27.8871 163.936 27.8871H161.19Z" fill="#0069FF"/>
<path d="M183.009 28.35C180.778 28.35 178.911 27.9771 177.407 27.2314C175.902 26.46 174.774 25.29 174.022 23.7214C173.27 22.1529 172.894 20.16 172.894 17.7429C172.894 15.3 173.27 13.3071 174.022 11.7643C174.774 10.1957 175.902 9.03857 177.407 8.29286C178.911 7.52143 180.778 7.13571 183.009 7.13571C185.265 7.13571 187.133 7.52143 188.611 8.29286C190.115 9.03857 191.243 10.1957 191.995 11.7643C192.748 13.3071 193.124 15.3 193.124 17.7429C193.124 20.16 192.748 22.1529 191.995 23.7214C191.243 25.29 190.115 26.46 188.611 27.2314C187.133 27.9771 185.265 28.35 183.009 28.35ZM183.009 24.4929C184.254 24.4929 185.252 24.2614 186.004 23.7986C186.782 23.31 187.34 22.59 187.677 21.6386C188.04 20.6614 188.222 19.4529 188.222 18.0129V17.4729C188.222 16.0329 188.04 14.8371 187.677 13.8857C187.34 12.9086 186.782 12.1886 186.004 11.7257C185.252 11.2371 184.254 10.9929 183.009 10.9929C181.764 10.9929 180.752 11.2371 179.974 11.7257C179.222 12.1886 178.664 12.9086 178.301 13.8857C177.964 14.8371 177.796 16.0329 177.796 17.4729V18.0129C177.796 19.4529 177.964 20.6614 178.301 21.6386C178.664 22.59 179.222 23.31 179.974 23.7986C180.752 24.2614 181.764 24.4929 183.009 24.4929Z" fill="#0069FF"/>
<path d="M201.595 27.8871C201.154 27.8871 200.765 27.5979 200.638 27.1754L195.132 8.88684C194.939 8.24503 195.419 7.59857 196.09 7.59857H198.871C199.327 7.59857 199.726 7.9074 199.839 8.34926L202.486 18.63C202.642 19.1957 202.771 19.7614 202.875 20.3271C202.979 20.8671 203.07 21.33 203.148 21.7157C203.203 21.9893 203.245 22.1853 203.274 22.3036C203.29 22.3677 203.348 22.41 203.414 22.41C203.485 22.41 203.548 22.3602 203.563 22.29C203.658 21.8608 203.753 21.3994 203.848 20.9057C203.952 20.3657 204.042 19.8771 204.12 19.44C204.224 18.9771 204.289 18.6686 204.315 18.5143L206.775 8.36304C206.884 7.91446 207.285 7.59857 207.747 7.59857H211.277C211.735 7.59857 212.135 7.90986 212.247 8.35407L214.819 18.5529C214.922 18.9129 215.013 19.3371 215.091 19.8257C215.195 20.2886 215.299 20.7514 215.402 21.2143C215.494 21.6248 215.566 21.9847 215.617 22.2941C215.628 22.3608 215.686 22.41 215.753 22.41C215.82 22.41 215.877 22.3617 215.888 22.2957C215.937 22.0107 215.995 21.6759 216.064 21.2914C216.167 20.8543 216.271 20.4043 216.375 19.9414C216.479 19.4786 216.569 19.0543 216.647 18.6686L219.257 8.35327C219.37 7.90945 219.769 7.59857 220.227 7.59857H222.657C223.327 7.59857 223.807 8.24371 223.615 8.88516L218.144 27.1737C218.018 27.5971 217.628 27.8871 217.186 27.8871H213.7C213.238 27.8871 212.836 27.5707 212.728 27.1215L210.578 18.2057C210.474 17.7171 210.345 17.1643 210.189 16.5471C210.059 15.93 209.93 15.3129 209.8 14.6957C209.704 14.1271 209.62 13.6348 209.546 13.219C209.536 13.1584 209.483 13.1143 209.421 13.1143C209.351 13.1143 209.294 13.1711 209.29 13.2411C209.277 13.4303 209.24 13.7095 209.178 14.0786C209.1 14.5414 208.983 15.12 208.827 15.8143C208.698 16.5086 208.516 17.3057 208.283 18.2057L206.06 27.1289C205.949 27.5744 205.549 27.8871 205.089 27.8871H201.595Z" fill="#0069FF"/>
<path d="M159.96 43.52C159.12 43.52 158.404 43.372 157.812 43.076C157.228 42.772 156.78 42.304 156.468 41.672C156.156 41.04 156 40.236 156 39.26C156 37.82 156.348 36.752 157.044 36.056C157.748 35.352 158.724 35 159.972 35C160.66 35 161.276 35.116 161.82 35.348C162.372 35.58 162.804 35.928 163.116 36.392C163.436 36.848 163.596 37.432 163.596 38.144H162.228C162.228 37.704 162.136 37.336 161.952 37.04C161.768 36.744 161.504 36.52 161.16 36.368C160.824 36.216 160.432 36.14 159.984 36.14C159.424 36.14 158.948 36.252 158.556 36.476C158.172 36.692 157.88 37.02 157.68 37.46C157.488 37.9 157.392 38.46 157.392 39.14V39.404C157.392 40.084 157.488 40.644 157.68 41.084C157.88 41.524 158.172 41.852 158.556 42.068C158.94 42.276 159.416 42.38 159.984 42.38C160.448 42.38 160.852 42.308 161.196 42.164C161.54 42.012 161.804 41.788 161.988 41.492C162.18 41.196 162.276 40.828 162.276 40.388H163.596C163.596 41.1 163.436 41.688 163.116 42.152C162.804 42.616 162.372 42.96 161.82 43.184C161.276 43.408 160.656 43.52 159.96 43.52Z" fill="#343E65"/>
<path d="M168.463 43.52C167.759 43.52 167.151 43.408 166.639 43.184C166.127 42.952 165.735 42.596 165.463 42.116C165.191 41.636 165.055 41.028 165.055 40.292V35.144H166.399V40.328C166.399 41.008 166.579 41.52 166.939 41.864C167.299 42.208 167.807 42.38 168.463 42.38C169.127 42.38 169.643 42.208 170.011 41.864C170.387 41.52 170.575 41.008 170.575 40.328V35.144H171.919V40.292C171.919 41.028 171.779 41.636 171.499 42.116C171.227 42.596 170.831 42.952 170.311 43.184C169.799 43.408 169.183 43.52 168.463 43.52Z" fill="#343E65"/>
<path d="M176.87 43.52C176.422 43.52 175.99 43.472 175.574 43.376C175.158 43.288 174.79 43.144 174.47 42.944C174.15 42.736 173.898 42.476 173.714 42.164C173.53 41.844 173.438 41.464 173.438 41.024C173.438 40.976 173.438 40.932 173.438 40.892C173.446 40.844 173.45 40.804 173.45 40.772H174.794C174.794 40.796 174.79 40.832 174.782 40.88C174.782 40.928 174.782 40.968 174.782 41C174.782 41.296 174.87 41.548 175.046 41.756C175.222 41.964 175.466 42.12 175.778 42.224C176.098 42.328 176.462 42.38 176.87 42.38C177.094 42.38 177.31 42.368 177.518 42.344C177.726 42.312 177.914 42.268 178.082 42.212C178.258 42.148 178.41 42.072 178.538 41.984C178.666 41.888 178.766 41.776 178.838 41.648C178.91 41.52 178.946 41.372 178.946 41.204C178.946 40.948 178.87 40.736 178.718 40.568C178.574 40.4 178.374 40.26 178.118 40.148C177.87 40.036 177.586 39.936 177.266 39.848C176.954 39.76 176.63 39.672 176.294 39.584C175.958 39.496 175.63 39.392 175.31 39.272C174.998 39.152 174.714 39.008 174.458 38.84C174.21 38.664 174.01 38.448 173.858 38.192C173.714 37.928 173.642 37.608 173.642 37.232C173.642 36.872 173.718 36.552 173.87 36.272C174.022 35.992 174.242 35.76 174.53 35.576C174.818 35.384 175.162 35.24 175.562 35.144C175.962 35.048 176.414 35 176.918 35C177.35 35 177.758 35.048 178.142 35.144C178.526 35.232 178.862 35.372 179.15 35.564C179.438 35.756 179.662 36 179.822 36.296C179.99 36.592 180.074 36.944 180.074 37.352V37.496H178.742V37.34C178.742 37.084 178.666 36.868 178.514 36.692C178.362 36.516 178.15 36.38 177.878 36.284C177.606 36.188 177.29 36.14 176.93 36.14C176.506 36.14 176.15 36.184 175.862 36.272C175.574 36.352 175.354 36.468 175.202 36.62C175.058 36.764 174.986 36.94 174.986 37.148C174.986 37.38 175.062 37.572 175.214 37.724C175.366 37.868 175.566 37.992 175.814 38.096C176.07 38.2 176.354 38.296 176.666 38.384C176.986 38.464 177.31 38.552 177.638 38.648C177.974 38.736 178.298 38.84 178.61 38.96C178.93 39.08 179.214 39.228 179.462 39.404C179.718 39.58 179.922 39.8 180.074 40.064C180.226 40.32 180.302 40.636 180.302 41.012C180.302 41.604 180.154 42.088 179.858 42.464C179.562 42.832 179.154 43.1 178.634 43.268C178.122 43.436 177.534 43.52 176.87 43.52Z" fill="#343E65"/>
<path d="M183.877 43.376V36.296H181.153V35.144H187.969V36.296H185.221V43.376H183.877Z" fill="#343E65"/>
<path d="M192.648 43.52C191.8 43.52 191.064 43.364 190.44 43.052C189.824 42.74 189.348 42.268 189.012 41.636C188.684 41.004 188.52 40.212 188.52 39.26C188.52 38.3 188.684 37.508 189.012 36.884C189.348 36.252 189.824 35.78 190.44 35.468C191.064 35.156 191.8 35 192.648 35C193.512 35 194.252 35.156 194.868 35.468C195.484 35.78 195.956 36.252 196.284 36.884C196.62 37.508 196.788 38.3 196.788 39.26C196.788 40.212 196.62 41.004 196.284 41.636C195.956 42.268 195.484 42.74 194.868 43.052C194.252 43.364 193.512 43.52 192.648 43.52ZM192.648 42.38C193.088 42.38 193.476 42.32 193.812 42.2C194.156 42.08 194.444 41.896 194.676 41.648C194.916 41.4 195.096 41.088 195.216 40.712C195.344 40.336 195.408 39.9 195.408 39.404V39.14C195.408 38.628 195.344 38.184 195.216 37.808C195.096 37.432 194.916 37.12 194.676 36.872C194.444 36.624 194.156 36.44 193.812 36.32C193.476 36.2 193.088 36.14 192.648 36.14C192.216 36.14 191.828 36.2 191.484 36.32C191.148 36.44 190.86 36.624 190.62 36.872C190.388 37.12 190.212 37.432 190.092 37.808C189.972 38.184 189.912 38.628 189.912 39.14V39.404C189.912 39.9 189.972 40.336 190.092 40.712C190.212 41.088 190.388 41.4 190.62 41.648C190.86 41.896 191.148 42.08 191.484 42.2C191.828 42.32 192.216 42.38 192.648 42.38Z" fill="#343E65"/>
<path d="M198.337 43.376V35.144H200.437L202.033 40.136C202.081 40.28 202.129 40.444 202.177 40.628C202.225 40.812 202.269 40.988 202.309 41.156C202.357 41.324 202.393 41.472 202.417 41.6H202.513C202.529 41.48 202.557 41.336 202.597 41.168C202.637 41 202.677 40.824 202.717 40.64C202.765 40.456 202.813 40.284 202.861 40.124L204.469 35.144H206.533V43.376H205.201V38.864C205.201 38.56 205.205 38.244 205.213 37.916C205.221 37.588 205.229 37.296 205.237 37.04C205.245 36.784 205.249 36.62 205.249 36.548H205.153C205.137 36.636 205.097 36.788 205.033 37.004C204.977 37.212 204.917 37.436 204.853 37.676C204.789 37.916 204.729 38.124 204.673 38.3L203.005 43.376H201.817L200.149 38.312C200.101 38.16 200.049 37.98 199.993 37.772C199.937 37.564 199.881 37.352 199.825 37.136C199.769 36.92 199.721 36.724 199.681 36.548H199.585C199.593 36.74 199.597 36.976 199.597 37.256C199.605 37.536 199.613 37.82 199.621 38.108C199.629 38.388 199.633 38.64 199.633 38.864V43.376H198.337Z" fill="#343E65"/>
<path d="M208.486 43.376V35.144H214.87V36.296H209.83V38.588H214.342V39.74H209.83V42.224H214.942V43.376H208.486Z" fill="#343E65"/>
<path d="M216.572 43.376V35.144H220.904C221.488 35.144 221.972 35.248 222.356 35.456C222.74 35.664 223.028 35.956 223.22 36.332C223.412 36.7 223.508 37.132 223.508 37.628C223.508 38.18 223.384 38.66 223.136 39.068C222.888 39.476 222.536 39.776 222.08 39.968L223.796 43.376H222.332L220.772 40.196H217.916V43.376H216.572ZM217.916 39.068H220.796C221.228 39.068 221.56 38.94 221.792 38.684C222.032 38.428 222.152 38.072 222.152 37.616C222.152 37.336 222.1 37.1 221.996 36.908C221.892 36.708 221.74 36.556 221.54 36.452C221.34 36.348 221.092 36.296 220.796 36.296H217.916V39.068Z" fill="#343E65"/>
</svg>
