<svg width="24" height="28" viewBox="0 0 24 28" fill="none" xmlns="http://www.w3.org/2000/svg">
<path d="M2 23L1.29289 23.7071L0.585786 23L1.29289 22.2929L2 23ZM17 22C17.5523 22 18 22.4477 18 23C18 23.5523 17.5523 24 17 24L17 22ZM5.29289 27.7071L1.29289 23.7071L2.70711 22.2929L6.70711 26.2929L5.29289 27.7071ZM1.29289 22.2929L5.29289 18.2929L6.70711 19.7071L2.70711 23.7071L1.29289 22.2929ZM2 22L17 22L17 24L2 24L2 22Z" fill="#FF3366"/>
<path d="M22 5L22.7071 5.70711L23.4142 5L22.7071 4.29289L22 5ZM7 4C6.44772 4 6 4.44771 6 5C6 5.55228 6.44771 6 7 6L7 4ZM18.7071 9.70711L22.7071 5.70711L21.2929 4.29289L17.2929 8.29289L18.7071 9.70711ZM22.7071 4.29289L18.7071 0.292893L17.2929 1.70711L21.2929 5.70711L22.7071 4.29289ZM22 4L7 4L7 6L22 6L22 4Z" fill="#FF3366"/>
</svg>
