<svg width="37" height="37" viewBox="0 0 37 37" fill="none" xmlns="http://www.w3.org/2000/svg">
    <circle cx="18.5" cy="18.5" r="18.5" fill="#32A071" fill-opacity="0.2" />
    <path fill-rule="evenodd" clip-rule="evenodd"
        d="M10.5858 13.5858C10 14.1716 10 15.1144 10 17V21C10 22.8856 10 23.8284 10.5858 24.4142C11.1716 25 12.1144 25 14 25H24C25.8856 25 26.8284 25 27.4142 24.4142C28 23.8284 28 22.8856 28 21V17C28 15.1144 28 14.1716 27.4142 13.5858C26.8284 13 25.8856 13 24 13H14C12.1144 13 11.1716 13 10.5858 13.5858ZM19 22C20.6569 22 22 20.6569 22 19C22 17.3431 20.6569 16 19 16C17.3431 16 16 17.3431 16 19C16 20.6569 17.3431 22 19 22Z"
        fill="#2DA771" fill-opacity="0.3" />
    <rect x="10" y="13" width="18" height="12" rx="2" stroke="#32A071" stroke-width="1.2" />
    <path d="M13 16H15" stroke="#32A071" stroke-width="1.2" stroke-linecap="round" />
    <path d="M23 22H25" stroke="#32A071" stroke-width="1.2" stroke-linecap="round" />
    <circle cx="19" cy="19" r="2.4" stroke="#32A071" stroke-width="1.2" />
</svg>