<svg width="22" height="22" viewBox="0 0 22 22" fill="none" xmlns="http://www.w3.org/2000/svg">
<path d="M21.0093 10.5085C21.0093 15.8157 17.0764 20.2033 11.9672 20.9153C11.4895 20.9816 11.0008 21.0162 10.5046 21.0162C9.93196 21.0162 9.3696 20.9706 8.82195 20.8822C3.82027 20.0767 0 15.7384 0 10.5085C0 4.70495 4.70357 0 10.5054 0C16.3072 0 21.0107 4.70495 21.0107 10.5085H21.0093Z" fill="#343E65"/>
<path d="M11.9671 8.43785V10.727H14.7981L14.3498 13.8106H11.9671V20.9152C11.4894 20.9814 11.0006 21.0161 10.5045 21.0161C9.93184 21.0161 9.36947 20.9704 8.82182 20.8821V13.8106H6.21094V10.727H8.82182V7.92612C8.82182 6.18846 10.2299 4.77917 11.9678 4.77917V4.78065C11.973 4.78065 11.9774 4.77917 11.9826 4.77917H14.7988V7.44605H12.9586C12.4117 7.44605 11.9678 7.89004 11.9678 8.43711L11.9671 8.43785Z" fill="white"/>
</svg>
