<svg width="22" height="22" viewBox="0 0 22 22" fill="none" xmlns="http://www.w3.org/2000/svg">
<path d="M10.753 0.00146484H10.7052C4.91666 0.00146484 0.224121 4.69539 0.224121 10.4856V10.5335C0.224121 16.3237 4.91666 21.0177 10.7052 21.0177H10.753C16.5416 21.0177 21.2341 16.3237 21.2341 10.5335V10.4856C21.2341 4.69539 16.5416 0.00146484 10.753 0.00146484Z" fill="#343E65"/>
<path d="M13.9799 4.27698H7.47885C5.6828 4.27698 4.22168 5.73853 4.22168 7.5351V13.4844C4.22168 15.281 5.6828 16.7425 7.47885 16.7425H13.9799C15.776 16.7425 17.2371 15.281 17.2371 13.4844V7.5351C17.2371 5.73853 15.776 4.27698 13.9799 4.27698ZM5.37071 7.5351C5.37071 6.37249 6.31657 5.42634 7.47885 5.42634H13.9799C15.1422 5.42634 16.0881 6.37249 16.0881 7.5351V13.4844C16.0881 14.647 15.1422 15.5932 13.9799 15.5932H7.47885C6.31657 15.5932 5.37071 14.647 5.37071 13.4844V7.5351Z" fill="white"/>
<path d="M10.7294 13.54C12.3996 13.54 13.7591 12.1808 13.7591 10.5094C13.7591 8.83797 12.4003 7.47876 10.7294 7.47876C9.05852 7.47876 7.69971 8.83797 7.69971 10.5094C7.69971 12.1808 9.05852 13.54 10.7294 13.54ZM10.7294 8.62886C11.7666 8.62886 12.6101 9.47266 12.6101 10.5101C12.6101 11.5475 11.7666 12.3913 10.7294 12.3913C9.69229 12.3913 8.84873 11.5475 8.84873 10.5101C8.84873 9.47266 9.69229 8.62886 10.7294 8.62886Z" fill="white"/>
<path d="M14.0395 7.96844C14.4892 7.96844 14.8558 7.6025 14.8558 7.15189C14.8558 6.70127 14.4899 6.33533 14.0395 6.33533C13.589 6.33533 13.2231 6.70127 13.2231 7.15189C13.2231 7.6025 13.589 7.96844 14.0395 7.96844Z" fill="white"/>
</svg>
