<svg width="22" height="22" viewBox="0 0 22 22" fill="none" xmlns="http://www.w3.org/2000/svg">
    <path
        d="M10.6769 0.00146484H10.629C4.84049 0.00146484 0.147949 4.69539 0.147949 10.4856V10.5335C0.147949 16.3237 4.84049 21.0177 10.629 21.0177H10.6769C16.4654 21.0177 21.158 16.3237 21.158 10.5335V10.4856C21.158 4.69539 16.4654 0.00146484 10.6769 0.00146484Z"
        fill="#343E65" />
    <path
        d="M12.7005 13.5831C10.0116 13.5831 7.82398 11.3941 7.82324 8.70439C7.82398 8.02258 8.37899 7.46814 9.05913 7.46814C9.12906 7.46814 9.19824 7.47403 9.26449 7.48581C9.41023 7.51011 9.54862 7.55944 9.67597 7.63381C9.69437 7.64485 9.70688 7.66253 9.70982 7.68314L9.99395 9.47456C9.99763 9.49517 9.99101 9.51653 9.97702 9.53199C9.82024 9.70576 9.62002 9.83092 9.39699 9.89351L9.28952 9.9237L9.33 10.0275C9.69657 10.9611 10.443 11.707 11.3771 12.0752L11.4808 12.1164L11.511 12.0089C11.5736 11.7858 11.6987 11.5855 11.8724 11.4287C11.8849 11.4169 11.9019 11.411 11.9188 11.411C11.9225 11.411 11.9262 11.411 11.9306 11.4118L13.7215 11.696C13.7428 11.6997 13.7605 11.7114 13.7715 11.7298C13.8451 11.8572 13.8945 11.9964 13.9195 12.1422C13.9313 12.207 13.9364 12.2754 13.9364 12.3469C13.9364 13.0279 13.3821 13.5824 12.7005 13.5831Z"
        fill="#FDFDFD" />
    <path
        d="M17.4688 9.91945C17.3238 8.28045 16.573 6.75999 15.3548 5.63861C14.1292 4.5106 12.5393 3.88916 10.8765 3.88916C7.22696 3.88916 4.25761 6.85939 4.25761 10.51C4.25761 11.7352 4.59547 12.9287 5.23512 13.9684L3.80859 17.1271L8.37599 16.6404C9.17022 16.9658 10.0108 17.1308 10.8757 17.1308C11.1032 17.1308 11.3365 17.119 11.5706 17.0947C11.7767 17.0726 11.985 17.0402 12.1896 16.999C15.2459 16.3812 17.4769 13.668 17.4946 10.5453V10.51C17.4946 10.3112 17.4858 10.1124 17.4681 9.92019L17.4688 9.91945ZM8.55192 15.2539L6.02495 15.5234L6.77943 13.8513L6.62853 13.6488C6.61749 13.6341 6.60645 13.6194 6.59394 13.6024C5.93882 12.6975 5.59286 11.6284 5.59286 10.5107C5.59286 7.59643 7.96305 5.22555 10.8765 5.22555C13.6059 5.22555 15.9194 7.35566 16.1424 10.0748C16.1542 10.2206 16.1608 10.3671 16.1608 10.5114C16.1608 10.5527 16.1601 10.5932 16.1593 10.6366C16.1034 13.0745 14.4008 15.145 12.0189 15.6722C11.8371 15.7127 11.6508 15.7436 11.4653 15.7635C11.2725 15.7856 11.0745 15.7966 10.8779 15.7966C10.1779 15.7966 9.49778 15.6611 8.85518 15.3931C8.78378 15.3644 8.71385 15.3335 8.64834 15.3018L8.55265 15.2554L8.55192 15.2539Z"
        fill="#FDFDFD" />
</svg>